<svg width="102" height="23" viewBox="0 0 102 23" fill="none" xmlns="http://www.w3.org/2000/svg">
<g clip-path="url(#clip0_15447_10422)">
<path d="M21.1391 13.6676C19.7414 19.2739 14.0631 22.6858 8.45621 21.2877C2.85157 19.89 -0.560339 14.2114 0.838043 8.60549C2.23511 2.99856 7.91334 -0.413665 13.5186 0.984061C19.1252 2.38179 22.5368 8.06099 21.1391 13.6676Z" fill="#090909"/>
<path d="M15.6025 9.64503C15.8108 8.25254 14.7506 7.50396 13.3008 7.00459L13.7711 5.11828L12.6229 4.83213L12.1651 6.66873C11.8632 6.59351 11.5532 6.52255 11.2451 6.45224L11.7062 4.60353L10.5587 4.31738L10.0881 6.20303C9.83824 6.14613 9.59297 6.08989 9.35489 6.0307L9.3562 6.02481L7.77273 5.62942L7.46728 6.85579C7.46728 6.85579 8.31919 7.05102 8.30121 7.06312C8.76624 7.17922 8.85029 7.48695 8.83622 7.73092L8.30055 9.87983C8.3326 9.88801 8.37414 9.89978 8.41992 9.9181C8.38166 9.90861 8.34078 9.89815 8.29859 9.88801L7.54772 12.8983C7.49082 13.0396 7.34661 13.2515 7.02154 13.1711C7.03299 13.1877 6.18696 12.9627 6.18696 12.9627L5.61694 14.2771L7.11114 14.6496C7.38912 14.7192 7.66153 14.7921 7.9297 14.8608L7.45453 16.7687L8.60142 17.0549L9.07201 15.1673C9.38531 15.2523 9.68945 15.3308 9.98704 15.4047L9.51809 17.2835L10.6663 17.5696L11.1415 15.6653C13.0994 16.0358 14.5717 15.8864 15.1914 14.1155C15.6908 12.6897 15.1665 11.8672 14.1364 11.3309C14.8866 11.1579 15.4517 10.6644 15.6025 9.64503ZM12.979 13.3238C12.6242 14.7496 10.2235 13.9788 9.44515 13.7855L10.0757 11.2579C10.854 11.4522 13.3499 11.8368 12.979 13.3238ZM13.3342 9.62442C13.0104 10.9214 11.0123 10.2625 10.3641 10.1009L10.9358 7.80843C11.5839 7.96999 13.6714 8.2715 13.3342 9.62442Z" fill="#E3E2E2"/>
<path d="M31.192 7.00251C32.0407 7.00251 32.7739 7.15457 33.39 7.45315C34.0091 7.75467 34.5199 8.16085 34.9297 8.67167C35.3339 9.1851 35.6347 9.7852 35.829 10.4729C36.0219 11.1627 36.1187 11.904 36.1187 12.6977C36.1187 13.9169 35.8954 15.0687 35.4444 16.1544C34.9934 17.2418 34.3816 18.185 33.6032 18.9895C32.8255 19.793 31.9073 20.4264 30.8483 20.8944C29.791 21.3627 28.6415 21.5969 27.4073 21.5969C27.2477 21.5969 26.9671 21.5923 26.5708 21.5841C26.1744 21.5759 25.7189 21.5351 25.2087 21.4661C24.6953 21.3944 24.1524 21.2885 23.5791 21.1465C23.0062 21.0072 22.462 20.812 21.9495 20.5641L26.5319 1.3099L30.6361 0.673828L28.9954 7.50646C29.3466 7.34818 29.7004 7.22554 30.0536 7.13626C30.4072 7.04829 30.7865 7.00251 31.192 7.00251ZM27.7494 18.341C28.3675 18.341 28.9499 18.1889 29.497 17.8903C30.0458 17.5914 30.5193 17.1879 30.916 16.6852C31.3127 16.1803 31.6267 15.6116 31.8556 14.9762C32.0845 14.3407 32.2003 13.6778 32.2003 12.9881C32.2003 12.1408 32.0587 11.4799 31.7764 11.0021C31.4942 10.5263 30.9719 10.2869 30.2136 10.2869C29.965 10.2869 29.6449 10.3343 29.2478 10.419C28.8495 10.5089 28.4931 10.6957 28.1735 10.9766L26.4266 18.2327C26.5319 18.2514 26.6251 18.269 26.7045 18.2857C26.7824 18.3037 26.8684 18.3164 26.9541 18.3253C27.0446 18.3354 27.1483 18.3406 27.2736 18.3406C27.3988 18.3406 27.5555 18.341 27.7494 18.341Z" fill="#090909"/>
<path d="M40.375 21.2284H36.4549L39.7654 7.29789H43.7123L40.375 21.2284ZM42.2826 5.6006C41.7354 5.6006 41.2393 5.43774 40.7992 5.11137C40.3554 4.78695 40.1356 4.28758 40.1356 3.61455C40.1356 3.24436 40.2108 2.89705 40.36 2.56936C40.5114 2.24233 40.7092 1.96076 40.9571 1.72138C41.2047 1.48395 41.4915 1.29427 41.8172 1.15136C42.1449 1.01074 42.4935 0.94043 42.865 0.94043C43.4118 0.94043 43.9053 1.10329 44.3471 1.42967C44.7873 1.75768 45.0087 2.25705 45.0087 2.92648C45.0087 3.29799 44.9338 3.6466 44.7834 3.97363C44.6339 4.30066 44.4361 4.58223 44.1882 4.82161C43.9426 5.05936 43.6531 5.24839 43.3281 5.38999C43.0001 5.53291 42.6528 5.6006 42.2826 5.6006Z" fill="#090909"/>
<path d="M47.1478 3.82748L51.2536 3.19141L50.2454 7.29759H54.6426L53.8486 10.528H49.4779L48.3136 15.4007C48.2064 15.8069 48.1455 16.1863 48.1285 16.5388C48.1092 16.893 48.154 17.1971 48.26 17.4532C48.3653 17.7099 48.5547 17.9078 48.8294 18.0477C49.1028 18.19 49.4942 18.2616 50.0076 18.2616C50.4305 18.2616 50.8425 18.2214 51.2409 18.1416C51.6369 18.0631 52.0382 17.9539 52.4443 17.811L52.7367 20.8314C52.2069 21.0257 51.6333 21.1928 51.0152 21.3334C50.3962 21.476 49.6633 21.5446 48.8163 21.5446C47.5984 21.5446 46.6543 21.3638 45.9816 21.0037C45.3099 20.6411 44.835 20.1456 44.5508 19.5184C44.2706 18.8934 44.1453 18.173 44.1803 17.3613C44.2166 16.5476 44.3392 15.6925 44.5508 14.7918L47.1478 3.82748Z" fill="#090909"/>
<path d="M54.47 15.6657C54.47 14.4658 54.6642 13.3343 55.0524 12.275C55.4399 11.2148 55.9982 10.2877 56.7226 9.49199C57.4443 8.70025 58.3237 8.07301 59.3587 7.61255C60.3889 7.15471 61.5423 6.92383 62.8135 6.92383C63.6091 6.92383 64.3198 6.99905 64.9451 7.14981C65.573 7.30188 66.141 7.49843 66.6548 7.74501L65.3028 10.8191C64.9496 10.6758 64.583 10.5496 64.204 10.4351C63.8247 10.3184 63.3616 10.2621 62.8138 10.2621C61.5054 10.2621 60.471 10.7131 59.7011 11.6121C58.9343 12.5118 58.548 13.7228 58.548 15.2418C58.548 16.1421 58.7423 16.8701 59.1321 17.427C59.52 17.984 60.2365 18.261 61.2768 18.261C61.7902 18.261 62.2857 18.2073 62.7602 18.1027C63.2383 17.9967 63.6605 17.8633 64.0323 17.7057L64.325 20.8569C63.8292 21.0492 63.2824 21.2229 62.6827 21.3749C62.0816 21.5218 61.366 21.598 60.5364 21.598C59.4411 21.598 58.514 21.4377 57.7556 21.1222C56.9969 20.8017 56.37 20.3762 55.8762 19.8373C55.3798 19.297 55.0233 18.6662 54.8029 17.9421C54.5825 17.2187 54.47 16.4587 54.47 15.6657Z" fill="#090909"/>
<path d="M71.8843 21.598C70.9487 21.598 70.136 21.4554 69.4466 21.1732C68.7592 20.8909 68.1898 20.4949 67.7395 19.9815C67.2885 19.4707 66.9511 18.8653 66.7198 18.1678C66.4886 17.4705 66.3774 16.6984 66.3774 15.8524C66.3774 14.7912 66.5478 13.7303 66.8922 12.6724C67.2349 11.6121 67.7434 10.6595 68.4165 9.81281C69.0843 8.96483 69.9081 8.27151 70.878 7.73093C71.847 7.19395 72.9615 6.92383 74.2134 6.92383C75.132 6.92383 75.9404 7.06674 76.6393 7.34896C77.3349 7.63054 77.9079 8.02984 78.3608 8.54066C78.8088 9.0541 79.1493 9.65682 79.3782 10.3554C79.6087 11.0513 79.7226 11.8253 79.7226 12.672C79.7226 13.73 79.5545 14.7909 79.2209 15.8521C78.887 16.908 78.3915 17.863 77.7375 18.7116C77.0847 19.5583 76.2685 20.2513 75.288 20.7896C74.3089 21.3279 73.1734 21.598 71.8843 21.598ZM73.8435 10.2625C73.2624 10.2625 72.7486 10.4312 72.3088 10.7645C71.8673 11.1016 71.4964 11.5255 71.1975 12.0366C70.8954 12.5501 70.6713 13.1099 70.5199 13.7185C70.3698 14.3284 70.2962 14.905 70.2962 15.4528C70.2962 16.3367 70.4388 17.0251 70.7191 17.5206C71.0033 18.0134 71.5138 18.2613 72.2558 18.2613C72.8389 18.2613 73.35 18.0939 73.7925 17.757C74.2314 17.4225 74.6026 16.9983 74.9038 16.4862C75.204 15.9754 75.4299 15.4139 75.5814 14.8043C75.7295 14.1963 75.8051 13.6165 75.8051 13.0697C75.8051 12.188 75.6631 11.498 75.3802 11.0032C75.0977 10.5104 74.5849 10.2625 73.8435 10.2625Z" fill="#090909"/>
<path d="M83.9942 21.2284H80.0709L83.3814 7.29789H87.3303L83.9942 21.2284ZM85.8989 5.6006C85.3521 5.6006 84.8563 5.43774 84.4168 5.11137C83.9753 4.78695 83.7535 4.28758 83.7535 3.61455C83.7535 3.24436 83.8297 2.89705 83.9792 2.56936C84.1286 2.24233 84.3278 1.96076 84.5757 1.72138C84.8219 1.48395 85.1114 1.29427 85.4364 1.15136C85.7622 1.01074 86.1108 0.94043 86.481 0.94043C87.0291 0.94043 87.5242 1.10329 87.965 1.42967C88.4062 1.75768 88.6289 2.25705 88.6289 2.92648C88.6289 3.29799 88.5498 3.6466 88.4016 3.97363C88.2535 4.30066 88.0543 4.58223 87.8074 4.82161C87.5589 5.05936 87.273 5.24839 86.9473 5.38999C86.619 5.53291 86.271 5.6006 85.8989 5.6006Z" fill="#090909"/>
<path d="M90.1555 7.93116C90.4531 7.84417 90.7854 7.73953 91.1467 7.62572C91.5094 7.51192 91.9146 7.40596 92.3672 7.31047C92.8149 7.21203 93.3202 7.13223 93.8758 7.07043C94.4314 7.00731 95.0645 6.97656 95.768 6.97656C97.8355 6.97656 99.2607 7.57863 100.047 8.77916C100.834 9.97969 100.97 11.6227 100.46 13.7052L98.6563 21.2269H94.7104L96.458 13.8635C96.5646 13.4037 96.6484 12.9592 96.7102 12.525C96.7726 12.0946 96.769 11.7152 96.6961 11.3869C96.6264 11.0625 96.4623 10.7969 96.2075 10.5912C95.9488 10.3888 95.558 10.2871 95.0279 10.2871C94.5168 10.2871 93.9968 10.342 93.466 10.448L90.8965 21.2266H86.949L90.1555 7.93116Z" fill="#090909"/>
</g>
<defs>
<clipPath id="clip0_15447_10422">
<rect width="101" height="22" fill="white" transform="translate(0.5 0.5)"/>
</clipPath>
</defs>
</svg>
