<svg width="107" height="29" viewBox="0 0 107 29" fill="none" xmlns="http://www.w3.org/2000/svg">
<g clip-path="url(#clip0_15447_10360)">
<path d="M30.5307 16.4838C30.5292 16.5753 30.4914 16.6626 30.4258 16.7265C30.3601 16.7903 30.2718 16.8256 30.1802 16.8245H23.7247C23.8902 18.4214 25.0878 19.8819 26.782 19.8819C27.9407 19.8819 28.7976 19.4437 29.4402 18.5187C29.4701 18.4701 29.5115 18.4296 29.5607 18.4008C29.61 18.3719 29.6655 18.3556 29.7226 18.3532C29.7651 18.352 29.8074 18.3595 29.8469 18.3752C29.8865 18.3909 29.9224 18.4146 29.9525 18.4446C29.9825 18.4747 30.0062 18.5106 30.0219 18.5502C30.0376 18.5897 30.0451 18.632 30.0439 18.6745C30.0441 18.7333 30.0272 18.7908 29.9952 18.8401C29.3428 19.9695 28.0478 20.5245 26.782 20.5245C24.6107 20.5245 23.0529 18.5772 23.0529 16.5032C23.0529 14.4293 24.601 12.4819 26.782 12.4819C28.9631 12.4819 30.521 14.4098 30.5307 16.4838ZM29.8394 16.1819C29.7031 14.5851 28.4762 13.1246 26.782 13.1246C25.0878 13.1246 23.8902 14.5851 23.7247 16.1819H29.8394Z" fill="black"/>
<path d="M38.3786 12.6375C38.463 12.6399 38.5433 12.6746 38.6031 12.7343C38.6628 12.794 38.6974 12.8743 38.6999 12.9588C38.7011 13.0013 38.6936 13.0436 38.6779 13.0832C38.6622 13.1227 38.6385 13.1586 38.6085 13.1887C38.5784 13.2188 38.5425 13.2424 38.5029 13.2581C38.4634 13.2738 38.4211 13.2813 38.3786 13.2801H36.6454V20.0861C36.6447 20.1711 36.6106 20.2524 36.5505 20.3125C36.4904 20.3726 36.4091 20.4067 36.3241 20.4074C36.2397 20.405 36.1593 20.3703 36.0996 20.3106C36.0399 20.2509 36.0052 20.1706 36.0028 20.0861V13.2801H34.3378C34.2953 13.2813 34.2529 13.2738 34.2134 13.2581C34.1739 13.2424 34.138 13.2188 34.1079 13.1887C34.0778 13.1586 34.0542 13.1227 34.0385 13.0832C34.0228 13.0436 34.0153 13.0013 34.0165 12.9588C34.0172 12.8738 34.0513 12.7925 34.1114 12.7324C34.1715 12.6723 34.2528 12.6382 34.3378 12.6375H36.0028V10.1546C36.003 10.0723 36.0325 9.99281 36.086 9.93034C36.1395 9.86787 36.2136 9.82655 36.2949 9.81381C36.3403 9.80777 36.3865 9.81162 36.4303 9.82508C36.4741 9.83854 36.5145 9.86131 36.5487 9.89181C36.5829 9.92232 36.6102 9.95985 36.6285 10.0018C36.6469 10.0438 36.656 10.0893 36.6552 10.1351V12.6375H38.3786Z" fill="black"/>
<path d="M48.9429 15.9282V20.0469C48.9405 20.1313 48.9059 20.2116 48.8461 20.2713C48.7864 20.3311 48.7061 20.3657 48.6216 20.3682C48.5791 20.3694 48.5368 20.3619 48.4973 20.3462C48.4577 20.3305 48.4218 20.3068 48.3917 20.2768C48.3617 20.2467 48.338 20.2108 48.3223 20.1712C48.3066 20.1317 48.2991 20.0894 48.3003 20.0469V15.9282C48.3003 14.5358 47.5116 13.1532 45.9635 13.1532C43.9772 13.1532 43.1203 14.8864 43.2372 16.6682C43.2372 16.7169 43.2567 16.9213 43.2567 16.9506V20.0371C43.2565 20.1194 43.227 20.1989 43.1734 20.2614C43.1199 20.3238 43.0458 20.3652 42.9646 20.3779C42.9191 20.3839 42.8729 20.3801 42.8291 20.3666C42.7853 20.3532 42.7449 20.3304 42.7107 20.2999C42.6765 20.2694 42.6493 20.2319 42.6309 20.1899C42.6126 20.1479 42.6035 20.1024 42.6043 20.0566V6.51272C42.6051 6.42774 42.6392 6.34645 42.6993 6.28636C42.7593 6.22627 42.8406 6.19217 42.9256 6.19141C43.0101 6.19386 43.0904 6.22849 43.1501 6.28823C43.2098 6.34797 43.2445 6.42828 43.2469 6.51272V14.1658C43.8019 13.1727 44.7951 12.5008 45.9538 12.5008C47.8622 12.5008 48.9429 14.1658 48.9429 15.9282Z" fill="black"/>
<path d="M60.5395 16.4838C60.538 16.5753 60.5002 16.6626 60.4345 16.7265C60.3689 16.7903 60.2806 16.8256 60.189 16.8245H53.7335C53.899 18.4214 55.0966 19.8819 56.7908 19.8819C57.9495 19.8819 58.8064 19.4437 59.449 18.5187C59.4789 18.4701 59.5203 18.4296 59.5695 18.4008C59.6188 18.3719 59.6743 18.3556 59.7313 18.3532C59.7739 18.352 59.8162 18.3595 59.8557 18.3752C59.8953 18.3909 59.9312 18.4146 59.9612 18.4446C59.9913 18.4747 60.0149 18.5106 60.0307 18.5502C60.0464 18.5897 60.0539 18.632 60.0527 18.6745C60.0529 18.7333 60.036 18.7908 60.004 18.8401C59.3516 19.9695 58.0566 20.5245 56.7908 20.5245C54.6195 20.5245 53.0616 18.5772 53.0616 16.5032C53.0616 14.4293 54.6098 12.4819 56.7908 12.4819C58.9524 12.4819 60.5298 14.4098 60.5395 16.4838ZM59.8385 16.1819C59.7021 14.5851 58.4753 13.1246 56.7811 13.1246C55.0869 13.1246 53.8893 14.5851 53.7238 16.1819H59.8385Z" fill="black"/>
<path d="M68.475 12.939C68.4811 13.0255 68.4529 13.1109 68.3963 13.1765C68.3398 13.2422 68.2595 13.2828 68.1731 13.2896C66.2745 13.5719 65.4176 15.1201 65.4176 16.9214V20.008C65.4174 20.0902 65.3879 20.1697 65.3344 20.2322C65.2809 20.2947 65.2068 20.336 65.1255 20.3487C65.0801 20.3548 65.0339 20.3509 64.9901 20.3375C64.9463 20.324 64.9059 20.3012 64.8717 20.2707C64.8375 20.2402 64.8102 20.2027 64.7919 20.1607C64.7735 20.1187 64.7644 20.0733 64.7652 20.0274V12.9877C64.7654 12.9055 64.7949 12.8259 64.8485 12.7635C64.902 12.701 64.9761 12.6597 65.0574 12.6469C65.1028 12.6409 65.149 12.6448 65.1928 12.6582C65.2366 12.6717 65.277 12.6944 65.3112 12.725C65.3454 12.7555 65.3726 12.793 65.391 12.835C65.4094 12.877 65.4184 12.9224 65.4176 12.9683V14.3996C65.9531 13.494 67.0144 12.6372 68.1244 12.6372C68.29 12.6372 68.475 12.754 68.475 12.939Z" fill="black"/>
<path d="M79.088 16.4838C79.0865 16.5753 79.0488 16.6626 78.9831 16.7265C78.9174 16.7903 78.8291 16.8256 78.7375 16.8245H72.282C72.4475 18.4214 73.6452 19.8819 75.3394 19.8819C76.498 19.8819 77.3549 19.4437 77.9975 18.5187C78.0274 18.4701 78.0688 18.4296 78.118 18.4008C78.1673 18.3719 78.2228 18.3556 78.2799 18.3532C78.3224 18.352 78.3647 18.3595 78.4042 18.3752C78.4438 18.3909 78.4797 18.4146 78.5098 18.4446C78.5398 18.4747 78.5635 18.5106 78.5792 18.5502C78.5949 18.5897 78.6024 18.632 78.6012 18.6745C78.6014 18.7333 78.5845 18.7908 78.5525 18.8401C77.9001 19.9695 76.6051 20.5245 75.3394 20.5245C73.1681 20.5245 71.6102 18.5772 71.6102 16.5032C71.6102 14.4293 73.1583 12.4819 75.3394 12.4819C77.5204 12.4819 79.0783 14.4098 79.088 16.4838ZM78.3967 16.1819C78.2604 14.5851 77.0336 13.1246 75.3394 13.1246C73.6452 13.1246 72.4475 14.5851 72.282 16.1819H78.3967Z" fill="black"/>
<path d="M89.5259 13.0174V20.0863C89.5235 20.1708 89.4888 20.2511 89.4291 20.3108C89.3694 20.3706 89.2891 20.4052 89.2046 20.4076C89.1621 20.4088 89.1198 20.4014 89.0802 20.3856C89.0407 20.3699 89.0048 20.3463 88.9747 20.3162C88.9446 20.2861 88.921 20.2502 88.9053 20.2107C88.8896 20.1712 88.8821 20.1288 88.8833 20.0863V18.7426C88.3478 19.804 87.4033 20.5732 86.196 20.5732C84.2778 20.5732 83.2165 18.9082 83.2165 17.1458V13.0077C83.2173 12.9227 83.2514 12.8414 83.3114 12.7813C83.3715 12.7212 83.4528 12.6871 83.5378 12.6864C83.6222 12.6888 83.7026 12.7235 83.7623 12.7832C83.822 12.8429 83.8567 12.9232 83.8591 13.0077V17.1458C83.8591 18.5382 84.6478 19.9208 86.196 19.9208C88.3673 19.9208 88.8833 17.8858 88.8833 15.6366V12.9979C88.884 12.9459 88.8972 12.8947 88.9218 12.8487C88.9463 12.8028 88.9815 12.7634 89.0244 12.7338C89.0673 12.7043 89.1167 12.6854 89.1683 12.6789C89.22 12.6723 89.2725 12.6782 89.3215 12.6961C89.3827 12.7245 89.4344 12.7699 89.4707 12.8269C89.5069 12.8838 89.5261 12.9499 89.5259 13.0174Z" fill="black"/>
<path d="M105.874 15.8991V20.0373C105.872 20.1217 105.837 20.202 105.777 20.2617C105.717 20.3215 105.637 20.3561 105.553 20.3586C105.51 20.3598 105.468 20.3523 105.428 20.3366C105.389 20.3209 105.353 20.2972 105.323 20.2671C105.293 20.2371 105.269 20.2012 105.253 20.1616C105.238 20.1221 105.23 20.0798 105.231 20.0373V15.8991C105.231 14.5068 104.443 13.1436 102.895 13.1436C100.947 13.1436 100.207 15.2273 100.207 16.8436V20.0373C100.205 20.1217 100.17 20.202 100.11 20.2617C100.051 20.3215 99.9704 20.3561 99.8859 20.3586C99.8434 20.3598 99.8011 20.3523 99.7615 20.3366C99.722 20.3209 99.6861 20.2972 99.656 20.2671C99.6259 20.2371 99.6023 20.2012 99.5866 20.1616C99.5709 20.1221 99.5634 20.0798 99.5646 20.0373V15.8991C99.5646 14.5068 98.7759 13.1436 97.2278 13.1436C95.2609 13.1436 94.4528 14.6918 94.5209 16.756C94.5209 16.8046 94.5404 16.8923 94.5209 16.9215V20.0275C94.5208 20.1098 94.4913 20.1893 94.4377 20.2518C94.3842 20.3142 94.3101 20.3556 94.2288 20.3683C94.1834 20.3743 94.1372 20.3705 94.0934 20.357C94.0496 20.3436 94.0092 20.3208 93.975 20.2903C93.9408 20.2598 93.9136 20.2223 93.8952 20.1803C93.8768 20.1383 93.8678 20.0928 93.8686 20.047V12.9878C93.8687 12.9055 93.8983 12.826 93.9518 12.7636C94.0053 12.7011 94.0794 12.6598 94.1607 12.647C94.2061 12.641 94.2523 12.6448 94.2961 12.6583C94.3399 12.6718 94.3803 12.6945 94.4145 12.725C94.4487 12.7555 94.476 12.7931 94.4943 12.8351C94.5127 12.8771 94.5218 12.9225 94.5209 12.9683V14.1465C95.0759 13.1533 96.0691 12.501 97.2278 12.501C98.5422 12.501 99.5646 13.3383 99.9833 14.5554C100.519 13.3481 101.561 12.501 102.895 12.501C104.793 12.501 105.874 14.1465 105.874 15.8991Z" fill="black"/>
<path opacity="0.6" d="M8.79821 11.0693L0.716675 14.7401L8.79821 19.5209L16.8895 14.7401L8.79821 11.0693Z" fill="black"/>
<path opacity="0.45" d="M0.716675 14.7405L8.79821 19.5213V1.32324L0.716675 14.7405Z" fill="black"/>
<path opacity="0.8" d="M8.79828 1.32324V19.5213L16.8896 14.7405L8.79828 1.32324Z" fill="black"/>
<path opacity="0.45" d="M0.716675 16.2793L8.79821 27.6713V21.0503L0.716675 16.2793Z" fill="black"/>
<path opacity="0.8" d="M8.79828 21.0503V27.6713L16.8896 16.2793L8.79828 21.0503Z" fill="black"/>
</g>
<defs>
<clipPath id="clip0_15447_10360">
<rect width="106" height="28" fill="white" transform="translate(0.5 0.5)"/>
</clipPath>
</defs>
</svg>
