<svg width="131" height="34" viewBox="0 0 131 34" fill="none" xmlns="http://www.w3.org/2000/svg">
<g clip-path="url(#clip0_15447_10386)">
<mask id="mask0_15447_10386" style="mask-type:luminance" maskUnits="userSpaceOnUse" x="0" y="0" width="131" height="34">
<path d="M130.5 0.5H0.5V33.5H130.5V0.5Z" fill="white"/>
</mask>
<g mask="url(#mask0_15447_10386)">
<path d="M30.5308 33.4985H36.6371L22.3724 17.8041L35.4859 0.600586H30.1804L14.9148 19.9671V33.4985H20.02V21.4259L30.5308 33.4985Z" fill="black"/>
<path d="M129.41 25.1267C129.318 25.3776 129.228 25.608 129.141 25.818C129.059 26.0221 128.975 26.203 128.888 26.3604C128.807 26.5179 128.714 26.6521 128.61 26.7629C128.511 26.8738 128.395 26.9642 128.261 27.0342C128.128 27.0983 127.971 27.1392 127.791 27.1567V27.1829C127.983 27.2004 128.148 27.2412 128.287 27.3054C128.427 27.3696 128.549 27.46 128.653 27.5766C128.763 27.6875 128.862 27.8275 128.949 27.9966C129.042 28.1658 129.135 28.367 129.228 28.6004C129.32 28.8278 129.422 29.0903 129.532 29.3878H128.757C128.653 29.1137 128.557 28.8716 128.47 28.6616C128.383 28.4458 128.296 28.262 128.209 28.1104C128.128 27.9587 128.038 27.8362 127.939 27.7429C127.84 27.6437 127.724 27.5737 127.591 27.5329C127.463 27.4862 127.312 27.4629 127.138 27.4629V26.8854C127.347 26.8854 127.524 26.8475 127.669 26.7717C127.814 26.69 127.939 26.5734 128.044 26.4217C128.154 26.27 128.255 26.0863 128.348 25.8705C128.441 25.6546 128.54 25.4067 128.644 25.1267H129.41ZM126.59 25.1267V26.3954C126.59 26.5238 126.581 26.6521 126.564 26.7804C126.546 26.9088 126.52 27.0342 126.485 27.1567C126.52 27.2792 126.546 27.4017 126.564 27.5241C126.581 27.6466 126.59 27.7633 126.59 27.8741V29.3878H125.85V25.1267H126.59ZM127.417 26.8854V27.4629H126.372V26.8854H127.417Z" fill="black"/>
<path d="M122.889 25.0215C123.528 25.0215 123.989 25.1382 124.274 25.3715C124.564 25.6048 124.712 25.9519 124.718 26.4127C124.718 26.7918 124.636 27.0893 124.474 27.3052C124.317 27.5151 124.062 27.6201 123.708 27.6201H121.227V27.0427H123.516C123.702 27.0427 123.824 26.9785 123.882 26.8502C123.946 26.716 123.975 26.5702 123.969 26.4127C123.969 26.1385 123.891 25.9431 123.734 25.8265C123.577 25.7098 123.307 25.6515 122.924 25.6515C122.617 25.6515 122.373 25.6981 122.193 25.7915C122.019 25.879 121.894 26.0365 121.819 26.2639C121.749 26.4856 121.714 26.7977 121.714 27.2002C121.714 27.6551 121.758 28.0022 121.845 28.2414C121.938 28.4805 122.083 28.6438 122.28 28.7313C122.477 28.8188 122.738 28.8626 123.064 28.8626C123.296 28.8626 123.545 28.8538 123.812 28.8363C124.085 28.813 124.329 28.7868 124.544 28.7576L124.613 29.2563C124.485 29.3088 124.323 29.3526 124.126 29.3876C123.928 29.4226 123.725 29.4488 123.516 29.4663C123.313 29.4838 123.13 29.4926 122.968 29.4926C122.486 29.4926 122.094 29.4196 121.792 29.2738C121.496 29.1222 121.282 28.883 121.148 28.5564C121.015 28.2239 120.948 27.7864 120.948 27.2439C120.948 26.6839 121.015 26.2435 121.148 25.9227C121.287 25.5961 121.499 25.3657 121.784 25.2315C122.068 25.0915 122.437 25.0215 122.889 25.0215Z" fill="black"/>
<path d="M119.655 25.1267V25.713H118.105C117.926 25.713 117.795 25.7538 117.714 25.8355C117.638 25.9113 117.586 26.0484 117.557 26.2467C117.528 26.5034 117.493 26.7658 117.453 27.0342C117.418 27.3025 117.377 27.5621 117.331 27.8129C117.284 28.0637 117.223 28.2883 117.148 28.4866C117.078 28.6908 116.982 28.8628 116.861 29.0028C116.739 29.1428 116.591 29.2478 116.417 29.3178C116.248 29.3878 116.048 29.4257 115.816 29.4316L115.737 28.8628C115.894 28.822 116.019 28.7753 116.112 28.7228C116.21 28.6703 116.286 28.6062 116.338 28.5304C116.396 28.4545 116.446 28.367 116.486 28.2679C116.538 28.1279 116.585 27.9675 116.625 27.7866C116.666 27.6058 116.701 27.4162 116.73 27.2179C116.759 27.0196 116.782 26.8271 116.8 26.6404C116.823 26.4479 116.843 26.2759 116.861 26.1242C116.901 25.7976 117.006 25.5496 117.174 25.3805C117.348 25.2113 117.612 25.1267 117.966 25.1267H119.655ZM119.768 25.1267V29.3878H119.028V25.1267H119.768Z" fill="black"/>
<path d="M113.299 25.0215C113.938 25.0215 114.399 25.1382 114.683 25.3715C114.974 25.6048 115.122 25.9519 115.127 26.4127C115.127 26.7918 115.046 27.0893 114.884 27.3052C114.727 27.5151 114.472 27.6201 114.117 27.6201H111.636V27.0427H113.926C114.112 27.0427 114.234 26.9785 114.292 26.8502C114.355 26.716 114.384 26.5702 114.379 26.4127C114.379 26.1385 114.3 25.9431 114.144 25.8265C113.987 25.7098 113.717 25.6515 113.334 25.6515C113.026 25.6515 112.783 25.6981 112.603 25.7915C112.429 25.879 112.304 26.0365 112.228 26.2639C112.159 26.4856 112.124 26.7977 112.124 27.2002C112.124 27.6551 112.167 28.0022 112.254 28.2414C112.347 28.4805 112.492 28.6438 112.69 28.7313C112.887 28.8188 113.148 28.8626 113.473 28.8626C113.705 28.8626 113.955 28.8538 114.222 28.8363C114.495 28.813 114.738 28.7868 114.953 28.7576L115.023 29.2563C114.895 29.3088 114.733 29.3526 114.535 29.3876C114.338 29.4226 114.135 29.4488 113.926 29.4663C113.723 29.4838 113.54 29.4926 113.377 29.4926C112.896 29.4926 112.504 29.4196 112.202 29.2738C111.906 29.1222 111.691 28.883 111.558 28.5564C111.424 28.2239 111.358 27.7864 111.358 27.2439C111.358 26.6839 111.424 26.2435 111.558 25.9227C111.697 25.5961 111.909 25.3657 112.193 25.2315C112.478 25.0915 112.846 25.0215 113.299 25.0215Z" fill="black"/>
<path d="M105.267 25.1267V29.3878H104.544V25.1267H105.267ZM109.663 28.7928V29.3878H105.206V28.7928H109.663ZM107.696 25.1267V29.3878H107.025V25.1267H107.696ZM110.177 25.1267V29.3878H109.463V25.1267H110.177Z" fill="black"/>
<path d="M101.373 25.0215C101.86 25.0215 102.249 25.0944 102.539 25.2402C102.829 25.3861 103.038 25.6252 103.166 25.9577C103.299 26.2844 103.366 26.7189 103.366 27.2614C103.366 27.8039 103.299 28.2414 103.166 28.5739C103.038 28.9005 102.829 29.1367 102.539 29.2826C102.249 29.4284 101.86 29.5013 101.373 29.5013C100.885 29.5013 100.493 29.4284 100.197 29.2826C99.907 29.1367 99.6952 28.9005 99.5617 28.5739C99.434 28.2414 99.3701 27.8039 99.3701 27.2614C99.3701 26.7189 99.434 26.2844 99.5617 25.9577C99.6952 25.6252 99.907 25.3861 100.197 25.2402C100.493 25.0944 100.885 25.0215 101.373 25.0215ZM101.373 25.6515C101.065 25.6515 100.821 25.7011 100.641 25.8002C100.461 25.8935 100.334 26.0569 100.258 26.2902C100.183 26.5235 100.145 26.8473 100.145 27.2614C100.145 27.6756 100.183 27.9993 100.258 28.2326C100.334 28.4659 100.461 28.6322 100.641 28.7313C100.821 28.8247 101.065 28.8713 101.373 28.8713C101.68 28.8713 101.921 28.8247 102.095 28.7313C102.275 28.6322 102.403 28.4659 102.478 28.2326C102.554 27.9993 102.591 27.6756 102.591 27.2614C102.591 26.8473 102.554 26.5235 102.478 26.2902C102.403 26.0569 102.275 25.8935 102.095 25.8002C101.921 25.7011 101.68 25.6515 101.373 25.6515Z" fill="black"/>
<path d="M98.4976 25.1267C98.4047 25.3776 98.3148 25.608 98.2277 25.818C98.1465 26.0221 98.0623 26.203 97.9752 26.3604C97.894 26.5179 97.8011 26.6521 97.6966 26.7629C97.598 26.8738 97.4819 26.9642 97.3484 27.0342C97.2149 27.0983 97.0582 27.1392 96.8783 27.1567V27.1829C97.0698 27.2004 97.2352 27.2412 97.3745 27.3054C97.5138 27.3696 97.6357 27.46 97.7402 27.5766C97.8504 27.6875 97.9491 27.8275 98.0362 27.9966C98.129 28.1658 98.2219 28.367 98.3148 28.6004C98.4076 28.8278 98.5092 29.0903 98.6195 29.3878H97.8446C97.7402 29.1137 97.6444 28.8716 97.5573 28.6616C97.4703 28.4458 97.3832 28.262 97.2962 28.1104C97.2149 27.9587 97.125 27.8362 97.0263 27.7429C96.9276 27.6437 96.8115 27.5737 96.678 27.5329C96.5504 27.4862 96.3995 27.4629 96.2253 27.4629V26.8854C96.4343 26.8854 96.6113 26.8475 96.7564 26.7717C96.9015 26.69 97.0263 26.5734 97.1308 26.4217C97.241 26.27 97.3426 26.0863 97.4355 25.8705C97.5283 25.6546 97.627 25.4067 97.7315 25.1267H98.4976ZM95.6769 25.1267V26.3954C95.6769 26.5238 95.6682 26.6521 95.6507 26.7804C95.6333 26.9088 95.6072 27.0342 95.5724 27.1567C95.6072 27.2792 95.6333 27.4017 95.6507 27.5241C95.6682 27.6466 95.6769 27.7633 95.6769 27.8741V29.3878H94.9369V25.1267H95.6769ZM96.5039 26.8854V27.4629H95.4592V26.8854H96.5039Z" fill="black"/>
<path d="M91.6149 25.1267V29.3878H90.9446V26.5617C90.9446 26.4683 90.9475 26.3779 90.9533 26.2904C90.9591 26.1971 90.9649 26.0979 90.9707 25.9929H90.9533C90.9185 26.0746 90.872 26.1621 90.814 26.2554C90.7618 26.3429 90.7095 26.4217 90.6573 26.4917L88.4982 29.3878H87.8888V25.1267H88.5592V27.9529C88.5592 28.0462 88.5563 28.1395 88.5504 28.2328C88.5504 28.3203 88.5446 28.4166 88.533 28.5216H88.5504C88.5969 28.4341 88.6462 28.3466 88.6984 28.2591C88.7507 28.1716 88.8029 28.0958 88.8552 28.0316L91.0142 25.1267H91.6149ZM90.4658 23.2368H91.0316C91.0491 23.4643 91.0055 23.6684 90.901 23.8493C90.8024 24.0301 90.6515 24.1759 90.4483 24.2868C90.251 24.3918 90.013 24.4443 89.7345 24.4443C89.4559 24.4443 89.215 24.3918 89.0119 24.2868C88.8087 24.1759 88.6549 24.0301 88.5504 23.8493C88.4518 23.6684 88.4083 23.4643 88.4199 23.2368H88.9857C88.9857 23.4876 89.0496 23.683 89.1773 23.823C89.3108 23.9572 89.4965 24.0243 89.7345 24.0243C89.9666 24.0243 90.1465 23.9572 90.2742 23.823C90.4019 23.683 90.4658 23.4876 90.4658 23.2368Z" fill="black"/>
<path d="M83.3384 26.7804C83.7621 26.7804 84.0929 26.8213 84.3308 26.9029C84.5688 26.9846 84.7371 27.1246 84.8358 27.3229C84.9403 27.5154 84.9925 27.7779 84.9925 28.1104C84.9925 28.4545 84.9403 28.7258 84.8358 28.9241C84.7313 29.1166 84.5659 29.2507 84.3395 29.3266C84.1132 29.4024 83.8172 29.4403 83.4515 29.4403C83.173 29.4403 82.9321 29.4374 82.729 29.4316C82.5258 29.4316 82.3401 29.4257 82.1718 29.4141C82.0035 29.4082 81.8264 29.3995 81.6407 29.3878L81.7365 28.8278C81.8409 28.8337 82.0354 28.8395 82.3198 28.8453C82.61 28.8512 82.9495 28.8541 83.3384 28.8541C83.5647 28.8541 83.7417 28.8337 83.8694 28.7928C84.0029 28.752 84.0987 28.6762 84.1567 28.5654C84.2148 28.4545 84.2438 28.2941 84.2438 28.0841C84.2438 27.8041 84.1799 27.6087 84.0523 27.4979C83.9304 27.3871 83.6924 27.3317 83.3384 27.3317H81.7278V26.7804H83.3384ZM82.3372 25.1267V29.3878H81.6146V25.1267H82.3372ZM86.516 25.1267V29.3878H85.7673V25.1267H86.516Z" fill="black"/>
<path d="M77.2786 25.1267V29.3878H76.5473V25.1267H77.2786ZM79.5857 26.8417V27.4104H77.2264V26.8417H79.5857ZM80.2386 25.1267V29.3878H79.5073V25.1267H80.2386Z" fill="black"/>
<path d="M72.2118 25.1267V29.3878H71.4805V25.1267H72.2118ZM74.5189 26.8417V27.4104H72.1596V26.8417H74.5189ZM75.1718 25.1267V29.3878H74.4405V25.1267H75.1718Z" fill="black"/>
<path d="M68.3089 25.0215C68.7965 25.0215 69.1853 25.0944 69.4755 25.2402C69.7657 25.3861 69.9747 25.6252 70.1024 25.9577C70.2359 26.2844 70.3026 26.7189 70.3026 27.2614C70.3026 27.8039 70.2359 28.2414 70.1024 28.5739C69.9747 28.9005 69.7657 29.1367 69.4755 29.2826C69.1853 29.4284 68.7965 29.5013 68.3089 29.5013C67.8214 29.5013 67.4296 29.4284 67.1336 29.2826C66.8434 29.1367 66.6316 28.9005 66.4981 28.5739C66.3704 28.2414 66.3066 27.8039 66.3066 27.2614C66.3066 26.7189 66.3704 26.2844 66.4981 25.9577C66.6316 25.6252 66.8434 25.3861 67.1336 25.2402C67.4296 25.0944 67.8214 25.0215 68.3089 25.0215ZM68.3089 25.6515C68.0013 25.6515 67.7576 25.7011 67.5776 25.8002C67.3977 25.8935 67.27 26.0569 67.1946 26.2902C67.1191 26.5235 67.0814 26.8473 67.0814 27.2614C67.0814 27.6756 67.1191 27.9993 67.1946 28.2326C67.27 28.4659 67.3977 28.6322 67.5776 28.7313C67.7576 28.8247 68.0013 28.8713 68.3089 28.8713C68.6166 28.8713 68.8574 28.8247 69.0315 28.7313C69.2115 28.6322 69.3391 28.4659 69.4146 28.2326C69.49 27.9993 69.5278 27.6756 69.5278 27.2614C69.5278 26.8473 69.49 26.5235 69.4146 26.2902C69.3391 26.0569 69.2115 25.8935 69.0315 25.8002C68.8574 25.7011 68.6166 25.6515 68.3089 25.6515Z" fill="black"/>
<path d="M63.8601 25.0215C64.3824 25.0215 64.7568 25.214 64.9831 25.599C65.2095 25.9781 65.3227 26.5381 65.3227 27.2789C65.3227 27.8272 65.2646 28.2647 65.1486 28.5913C65.0325 28.9122 64.8555 29.1426 64.6175 29.2826C64.3795 29.4226 64.0806 29.4926 63.7208 29.4926C63.4422 29.4926 63.1665 29.4546 62.8937 29.3788C62.6209 29.303 62.3598 29.1863 62.1102 29.0288L62.1537 28.5826C62.4265 28.6584 62.6645 28.7226 62.8676 28.7751C63.0765 28.8218 63.2971 28.8451 63.5293 28.8451C63.7788 28.8451 63.9762 28.8013 64.1213 28.7138C64.2722 28.6263 64.3824 28.4689 64.4521 28.2414C64.5217 28.0139 64.5566 27.6931 64.5566 27.2789C64.5566 26.8764 64.5246 26.5585 64.4608 26.3252C64.4028 26.0919 64.3041 25.9256 64.1648 25.8265C64.0313 25.7215 63.8514 25.669 63.625 25.669C63.3929 25.669 63.1636 25.7244 62.9373 25.8352C62.7109 25.946 62.4468 26.1152 62.145 26.3427L62.0667 25.844C62.2234 25.6748 62.4004 25.529 62.5977 25.4065C62.7951 25.284 63.0011 25.1907 63.2158 25.1265C63.4364 25.0565 63.6511 25.0215 63.8601 25.0215ZM62.0405 25.1265L62.1276 26.0102L62.1711 26.124V28.8538L62.1363 28.9588C62.1537 29.1222 62.1653 29.2797 62.1711 29.4313C62.1769 29.583 62.1769 29.7434 62.1711 29.9125V31.1462H61.4398V25.1265H62.0405Z" fill="black"/>
<path d="M58.9829 25.1267V29.3878H58.2429V25.1267H58.9829ZM60.5151 25.1267V25.7392H56.7019V25.1267H60.5151Z" fill="black"/>
<path d="M56.0562 25.1267C55.9633 25.3776 55.8733 25.608 55.7863 25.818C55.705 26.0221 55.6209 26.203 55.5338 26.3604C55.4525 26.5179 55.3597 26.6521 55.2552 26.7629C55.1565 26.8738 55.0405 26.9642 54.907 27.0342C54.7735 27.0983 54.6168 27.1392 54.4369 27.1567V27.1829C54.6284 27.2004 54.7938 27.2412 54.9331 27.3054C55.0724 27.3696 55.1943 27.46 55.2987 27.5766C55.409 27.6875 55.5077 27.8275 55.5947 27.9966C55.6876 28.1658 55.7805 28.367 55.8733 28.6004C55.9662 28.8278 56.0678 29.0903 56.178 29.3878H55.4032C55.2987 29.1137 55.203 28.8716 55.1159 28.6616C55.0289 28.4458 54.9418 28.262 54.8547 28.1104C54.7735 27.9587 54.6835 27.8362 54.5849 27.7429C54.4862 27.6437 54.3701 27.5737 54.2366 27.5329C54.1089 27.4862 53.958 27.4629 53.7839 27.4629V26.8854C53.9929 26.8854 54.1699 26.8475 54.315 26.7717C54.4601 26.69 54.5849 26.5734 54.6893 26.4217C54.7996 26.27 54.9012 26.0863 54.994 25.8705C55.0869 25.6546 55.1856 25.4067 55.29 25.1267H56.0562ZM53.2354 25.1267V26.3954C53.2354 26.5238 53.2267 26.6521 53.2093 26.7804C53.1919 26.9088 53.1658 27.0342 53.131 27.1567C53.1658 27.2792 53.1919 27.4017 53.2093 27.5241C53.2267 27.6466 53.2354 27.7633 53.2354 27.8741V29.3878H52.4954V25.1267H53.2354ZM54.0625 26.8854V27.4629H53.0178V26.8854H54.0625Z" fill="black"/>
<path d="M49.5351 25.0215C50.1735 25.0215 50.6349 25.1382 50.9193 25.3715C51.2095 25.6048 51.3575 25.9519 51.3633 26.4127C51.3633 26.7918 51.2821 27.0893 51.1196 27.3052C50.9629 27.5151 50.7075 27.6201 50.3535 27.6201H47.8723V27.0427H50.1619C50.3476 27.0427 50.4695 26.9785 50.5276 26.8502C50.5914 26.716 50.6204 26.5702 50.6146 26.4127C50.6146 26.1385 50.5363 25.9431 50.3796 25.8265C50.2229 25.7098 49.953 25.6515 49.5699 25.6515C49.2623 25.6515 49.0185 25.6981 48.8386 25.7915C48.6645 25.879 48.5397 26.0365 48.4643 26.2639C48.3946 26.4856 48.3598 26.7977 48.3598 27.2002C48.3598 27.6551 48.4033 28.0022 48.4904 28.2414C48.5832 28.4805 48.7283 28.6438 48.9257 28.7313C49.123 28.8188 49.3842 28.8626 49.7092 28.8626C49.9414 28.8626 50.1909 28.8538 50.4579 28.8363C50.7307 28.813 50.9745 28.7868 51.1892 28.7576L51.2589 29.2563C51.1312 29.3088 50.9687 29.3526 50.7713 29.3876C50.574 29.4226 50.3709 29.4488 50.1619 29.4663C49.9588 29.4838 49.776 29.4926 49.6134 29.4926C49.1317 29.4926 48.74 29.4196 48.4381 29.2738C48.1421 29.1222 47.9274 28.883 47.7939 28.5564C47.6604 28.2239 47.5937 27.7864 47.5937 27.2439C47.5937 26.6839 47.6604 26.2435 47.7939 25.9227C47.9332 25.5961 48.145 25.3657 48.4294 25.2315C48.7138 25.0915 49.0824 25.0215 49.5351 25.0215Z" fill="black"/>
<path d="M46.3008 25.1267V25.713H44.7512C44.5713 25.713 44.4407 25.7538 44.3594 25.8355C44.284 25.9113 44.2317 26.0484 44.2027 26.2467C44.1737 26.5034 44.1389 26.7658 44.0982 27.0342C44.0634 27.3025 44.0228 27.5621 43.9764 27.8129C43.9299 28.0637 43.869 28.2883 43.7935 28.4866C43.7239 28.6908 43.6281 28.8628 43.5062 29.0028C43.3844 29.1428 43.2364 29.2478 43.0622 29.3178C42.8939 29.3878 42.6937 29.4257 42.4615 29.4316L42.3832 28.8628C42.5399 28.822 42.6647 28.7753 42.7575 28.7228C42.8562 28.6703 42.9317 28.6062 42.9839 28.5304C43.0419 28.4545 43.0913 28.367 43.1319 28.2679C43.1841 28.1279 43.2306 27.9675 43.2712 27.7866C43.3118 27.6058 43.3466 27.4162 43.3757 27.2179C43.4047 27.0196 43.4279 26.8271 43.4453 26.6404C43.4685 26.4479 43.4888 26.2759 43.5062 26.1242C43.5469 25.7976 43.6513 25.5496 43.8197 25.3805C43.9938 25.2113 44.2579 25.1267 44.6119 25.1267H46.3008ZM46.414 25.1267V29.3878H45.674V25.1267H46.414Z" fill="black"/>
<path d="M39.7274 25.0742C40.2382 25.0742 40.6444 25.1442 40.9463 25.2841C41.2481 25.4241 41.4657 25.6546 41.5992 25.9754C41.7327 26.2962 41.7994 26.7308 41.7994 27.2791C41.7994 27.8157 41.7327 28.2474 41.5992 28.574C41.4657 28.8948 41.2481 29.1252 40.9463 29.2652C40.6444 29.4052 40.2382 29.4752 39.7274 29.4752C39.3908 29.4752 39.1122 29.4606 38.8917 29.4315C38.6711 29.4081 38.4535 29.3673 38.2387 29.309L38.3171 28.784C38.526 28.8015 38.7349 28.8161 38.9439 28.8278C39.1528 28.8394 39.414 28.8452 39.7274 28.8452C40.064 28.8452 40.3281 28.8015 40.5197 28.714C40.7112 28.6207 40.8476 28.4603 40.9288 28.2328C41.0101 28.0053 41.0507 27.6874 41.0507 27.2791C41.0507 26.8707 41.0101 26.5528 40.9288 26.3254C40.8476 26.092 40.7112 25.9287 40.5197 25.8354C40.3281 25.742 40.064 25.6954 39.7274 25.6954C39.4372 25.6954 39.1935 25.7012 38.9961 25.7129C38.7988 25.7187 38.5869 25.7275 38.3606 25.7391L38.2822 25.2229C38.5028 25.1587 38.7146 25.1179 38.9178 25.1004C39.1267 25.0829 39.3966 25.0742 39.7274 25.0742ZM41.5818 26.9378V27.4978H38.8917V26.9378H41.5818Z" fill="black"/>
<path d="M58.2603 5.0271H61.4635L55.107 20.9228H52.4543L48.8006 9.90646L45.2469 20.9228H42.5441L36.2377 5.12771H39.3409L43.9456 16.5967L47.6494 5.12771H50.252L53.8057 16.8482L58.2603 5.0271Z" fill="black"/>
<path d="M77.3789 12.9431V20.8574H82.9847H88.5904V19.516V18.1746H84.4528H80.3153V11.6017V5.02881H78.8471H77.3789V12.9431Z" fill="black"/>
<path d="M90.7259 12.9431V20.8574H96.1982H101.67V19.516V18.1746H97.6664H93.6623V11.6017V5.02881H92.1941H90.7259V12.9431Z" fill="black"/>
<path d="M103.806 12.9431V20.8574H109.679H115.551V19.516V18.1746H111.147H106.742V16.1625V14.1504H110.48H114.217V12.809V11.4676H110.48H106.742V9.58958V7.71162H111.013H115.284V6.37022V5.02881H109.545H103.806V12.9431Z" fill="black"/>
<path d="M117.153 6.37022V7.71162H119.689H122.225V14.0967C122.225 19.4489 122.252 20.5086 122.412 20.6696C122.559 20.8037 122.972 20.8574 124.013 20.8574H125.428V14.2845V7.71162H127.964H130.5V6.37022V5.02881H123.827H117.153V6.37022Z" fill="black"/>
<path fill-rule="evenodd" clip-rule="evenodd" d="M75.477 20.8221H72.0735L70.7722 17.4016H63.1644L61.5627 20.8221H58.5596L65.3666 5.0271H68.4698L75.477 20.8221ZM64.1654 14.6852H69.7712L66.8682 8.3471L64.1654 14.6852Z" fill="black"/>
<path d="M0.5 0.5V16.3956L5.10472 10.4599V4.52421H22.8229L25.9261 0.600605L0.5 0.5Z" fill="black"/>
<path d="M0.5 33.4986H5.00462V20.118H10.5103L13.7136 16.0938H5.00462L0.5 21.6271V33.4986Z" fill="black"/>
</g>
</g>
<defs>
<clipPath id="clip0_15447_10386">
<rect width="130" height="33" fill="white" transform="translate(0.5 0.5)"/>
</clipPath>
</defs>
</svg>
