<svg width="80" height="25" viewBox="0 0 80 25" fill="none" xmlns="http://www.w3.org/2000/svg">
<g clip-path="url(#clip0_15447_10374)">
<path d="M11.6568 1.23047C5.53723 1.23047 0.575439 6.22448 0.575439 12.3838C0.575439 18.543 5.53723 23.537 11.6568 23.537C17.7763 23.537 22.7381 18.543 22.7381 12.3838C22.7254 6.22448 17.7763 1.23047 11.6568 1.23047ZM11.8222 12.7423L10.6771 16.6607H16.8348C17.0511 16.6607 17.1911 16.8656 17.1402 17.0704L16.6058 18.9272C16.5549 19.1065 16.3895 19.2345 16.1987 19.2345H6.78404L8.37435 13.8179L6.61864 14.3686L7.00032 13.088L8.76875 12.5374L11.0079 4.93116C11.0588 4.75188 11.2242 4.62383 11.415 4.62383H13.7942C14.0104 4.62383 14.1504 4.82872 14.0995 5.0336L12.2038 11.4618L13.9595 10.9112L13.5779 12.2045L11.8222 12.7423Z" fill="black"/>
<path d="M29.1375 4.61133H28.4505C28.3232 4.61133 28.2342 4.68816 28.2087 4.81621L26.4276 19.0171C26.4149 19.158 26.453 19.222 26.593 19.222H27.28C27.4199 19.222 27.4963 19.158 27.5217 19.0171L29.3156 4.81621C29.3538 4.67535 29.2774 4.61133 29.1375 4.61133Z" fill="black"/>
<path d="M32.738 8.70898H32.051C31.9238 8.70898 31.8347 8.77301 31.8093 8.91387L30.537 19.0299C30.5243 19.1708 30.6006 19.2348 30.7279 19.2348H31.4149C31.5421 19.2348 31.6312 19.1708 31.6566 19.0299L32.9161 8.92667C32.9289 8.78581 32.878 8.70898 32.738 8.70898Z" fill="black"/>
<path d="M62.8396 8.54297C61.8854 8.54297 61.0584 8.81188 60.3587 9.3625C59.6589 9.91312 59.2009 10.6302 58.9719 11.5266C58.7811 12.2565 58.6157 13.2809 58.5393 13.9724C58.4376 14.9071 58.3485 15.6754 58.3485 16.4181C58.3612 17.3273 58.6538 18.0444 59.2009 18.595C59.7607 19.1328 60.5241 19.4145 61.491 19.4145C62.4324 19.4145 63.2594 19.1456 63.9592 18.595C64.6589 18.0572 65.1169 17.3273 65.3459 16.4181C65.4986 15.8163 65.6513 15.0096 65.7785 13.9724C65.9057 12.8967 65.9693 12.0772 65.9693 11.5138C65.9693 10.6174 65.6894 9.90032 65.1296 9.3625C64.5571 8.81188 63.7938 8.54297 62.8396 8.54297ZM64.7734 12.9864C64.7098 13.4986 64.6716 13.8315 64.6589 13.9724C64.5317 15.0224 64.4172 15.7651 64.3154 16.2133C64.1627 16.8791 63.8319 17.4169 63.3358 17.8267C62.8396 18.2365 62.2543 18.4285 61.6055 18.4285C60.9439 18.4285 60.4223 18.2237 60.0279 17.8267C59.6335 17.4297 59.4427 16.9047 59.4427 16.2517C59.4427 15.9059 59.4808 15.4706 59.5444 14.9584C59.608 14.4461 59.6462 14.1132 59.6589 13.9724C59.7862 12.9736 59.9007 12.2309 60.0024 11.7315C60.1551 11.0656 60.4859 10.5278 60.9821 10.118C61.4783 9.70824 62.0635 9.51616 62.7123 9.51616C63.3739 9.51616 63.8955 9.72104 64.2899 10.1052C64.6843 10.5022 64.8752 11.0272 64.8752 11.6802C64.8752 12.0516 64.837 12.4742 64.7734 12.9864Z" fill="black"/>
<path d="M69.8877 8.70898H69.2134C69.0862 8.70898 68.9972 8.78582 68.9717 8.91387L67.6867 19.0299C67.674 19.1708 67.7504 19.2348 67.8776 19.2348H68.5646C68.6918 19.2348 68.7809 19.1708 68.8063 19.0299L70.0659 8.92667C70.0786 8.78581 70.0277 8.70898 69.8877 8.70898Z" fill="black"/>
<path d="M78.5646 9.31106C78.0938 8.81166 77.4323 8.56836 76.5671 8.56836C76.0073 8.56836 75.4984 8.6708 75.0277 8.88849C74.557 9.10618 74.1626 9.4263 73.8318 9.86168C73.7682 9.9129 73.7427 9.90009 73.7427 9.82326L73.8445 8.9269C73.8572 8.79885 73.8063 8.72202 73.6791 8.72202H72.9921C72.8649 8.72202 72.7758 8.79885 72.7503 8.9269L71.4908 19.0302C71.4781 19.1582 71.5163 19.235 71.6562 19.235H72.3432C72.4705 19.235 72.5595 19.1582 72.5722 19.0302L73.4883 11.7825C73.6409 11.1038 73.959 10.5532 74.4297 10.1562C74.9005 9.75924 75.4603 9.55436 76.1218 9.55436C76.7325 9.55436 77.216 9.74643 77.5722 10.1306C77.9284 10.5147 78.1066 11.0269 78.1066 11.68C78.1066 11.8721 78.0938 12.0257 78.0811 12.141L77.2032 19.0302C77.2032 19.0942 77.2032 19.1326 77.2287 19.171C77.2669 19.2094 77.3177 19.235 77.3941 19.235H78.0811C78.2083 19.235 78.2974 19.171 78.3101 19.0302L79.188 11.9745C79.2134 11.6928 79.2261 11.4879 79.2261 11.3471C79.2643 10.4763 79.0353 9.79765 78.5646 9.31106Z" fill="black"/>
<path d="M33.1833 4.62385C32.7761 4.40616 32.2545 4.55982 32.0509 4.98239C31.8347 5.39216 32.0001 5.91717 32.4072 6.13486C32.8143 6.35254 33.3232 6.18608 33.5395 5.77631C33.7558 5.35374 33.6031 4.84154 33.1833 4.62385Z" fill="black"/>
<path d="M70.3839 4.62385C69.9768 4.40616 69.4552 4.55982 69.2516 4.98239C69.0353 5.39216 69.2007 5.91717 69.6079 6.13486C70.015 6.35254 70.5366 6.18608 70.7529 5.77631C70.9564 5.35374 70.7911 4.84154 70.3839 4.62385Z" fill="black"/>
<path d="M53.8828 8.54297C52.9286 8.54297 52.1017 8.82468 51.4019 9.3625C50.7022 9.91312 50.2442 10.6302 50.0152 11.5266C49.8243 12.2565 49.6462 13.4089 49.5826 13.9724C49.4936 14.7919 49.3918 15.6754 49.3918 16.4181C49.4045 17.3273 49.6971 18.0444 50.2442 18.595C50.804 19.1328 51.5673 19.4145 52.5342 19.4145C53.4757 19.4145 54.3027 19.1456 55.0024 18.595C55.7022 18.0572 56.1602 17.3273 56.3892 16.4181C56.4019 16.3413 56.4273 16.2645 56.4401 16.1876C56.4528 16.1236 56.4019 16.0724 56.351 16.0724H55.4986C55.4477 16.0724 55.3841 16.098 55.3714 16.1748C55.3714 16.1876 55.3587 16.2133 55.3587 16.2133C55.206 16.8791 54.8752 17.4169 54.379 17.8267C53.8828 18.2365 53.2976 18.4285 52.6487 18.4285C51.9872 18.4285 51.4656 18.2237 51.0712 17.8267C50.6768 17.4297 50.4859 16.9047 50.4859 16.2517C50.4859 15.9059 50.5241 15.4706 50.5877 14.9584C50.6386 14.523 50.6895 14.1132 50.7022 13.9724C50.8294 12.9736 50.9439 12.2309 51.0457 11.7315C51.1984 11.0656 51.5292 10.5278 52.0253 10.118C52.5215 9.70824 53.1068 9.51616 53.7556 9.51616C54.4045 9.51616 54.9388 9.70824 55.3332 10.1052C55.7276 10.5022 55.9184 11.0272 55.9184 11.6802V11.693C55.9184 11.7827 55.9948 11.8595 56.0838 11.8595H56.8854C56.949 11.8595 57.0126 11.8083 57.0126 11.7315C57.0126 11.6418 57.0126 11.565 57.0126 11.4882C57.0126 10.5918 56.7327 9.8747 56.1729 9.33689C55.6004 8.81188 54.8497 8.54297 53.8828 8.54297Z" fill="black"/>
<path d="M46.9745 9.3625C46.4147 8.82468 45.6514 8.54297 44.6972 8.54297C43.743 8.54297 42.916 8.81188 42.2163 9.3625C41.5165 9.91312 41.0585 10.6302 40.8295 11.5266C40.6387 12.2565 40.5496 12.9095 40.397 13.9724C40.257 15.0224 40.2061 15.6754 40.2061 16.4181C40.2188 17.3273 40.5115 18.0444 41.0585 18.595C41.6183 19.1328 42.3817 19.4145 43.3486 19.4145C44.2901 19.4145 45.117 19.1456 45.8168 18.595C46.5165 18.0572 46.9745 17.3273 47.2035 16.4181C47.2162 16.3413 47.2417 16.2645 47.2544 16.1876C47.2671 16.1236 47.229 16.0724 47.1653 16.0724H46.3129C46.262 16.0724 46.1984 16.098 46.1857 16.1748C46.1857 16.1876 46.173 16.2133 46.173 16.2133C46.0203 16.8791 45.6895 17.4169 45.1934 17.8267C44.6972 18.2365 44.1119 18.4285 43.4631 18.4285C42.8015 18.4285 42.2799 18.2237 41.8855 17.8267C41.4911 17.4297 41.3003 16.9047 41.3003 16.2517C41.3003 15.9443 41.3257 15.5602 41.3766 15.1248L47.5597 13.1912C47.687 13.1528 47.7379 13.0888 47.7633 12.9351C47.8015 12.615 47.8269 12.0644 47.8269 11.501C47.8142 10.6942 47.5343 9.90032 46.9745 9.3625ZM46.7328 12.2693C46.7328 12.3333 46.6946 12.3845 46.631 12.3973L41.5038 13.998C41.5038 13.9852 41.5038 13.9852 41.5038 13.9724C41.631 12.9736 41.7455 12.2309 41.8473 11.7315C42 11.0656 42.3308 10.5278 42.827 10.118C43.3231 9.70824 43.9084 9.51616 44.5572 9.51616C45.2188 9.51616 45.7404 9.72104 46.1348 10.1052C46.7582 10.7583 46.7709 11.4241 46.7328 12.2693Z" fill="black"/>
<path d="M37.8525 18.121C37.9797 18.057 38.1196 18.1467 38.0942 18.2875L38.0051 18.979C37.9924 19.0686 37.9288 19.1455 37.8525 19.1839C37.2418 19.4144 36.3894 19.5168 35.7023 19.2095C34.9136 18.8509 34.71 18.0698 34.8245 17.0966L35.7278 9.68245L35.855 8.61962L36.1604 6.26348C36.1731 6.12262 36.2621 6.05859 36.4021 6.05859H37.0637C37.2163 6.05859 37.2545 6.14823 37.2291 6.26348L36.8347 9.61843H38.9848C39.112 9.61843 39.1629 9.69526 39.1629 9.82331L39.0993 10.3099C39.0865 10.3867 39.0738 10.4252 39.0356 10.4764C38.9975 10.5148 38.9211 10.5276 38.8703 10.5276H36.7329L35.9822 16.61C35.9059 17.2631 35.8169 17.8521 36.1476 18.1723C36.5802 18.5308 37.4199 18.3259 37.8525 18.121Z" fill="black"/>
</g>
<defs>
<clipPath id="clip0_15447_10374">
<rect width="79" height="24" fill="white" transform="translate(0.5 0.5)"/>
</clipPath>
</defs>
</svg>
