<svg width="133" height="37" viewBox="0 0 133 37" fill="none" xmlns="http://www.w3.org/2000/svg">
<g clip-path="url(#clip0_15447_10353)">
<path d="M70.1995 7.42278V11.9878C70.1995 13.1465 69.9759 13.9641 69.5285 14.4408C69.0885 14.9175 68.3259 15.1558 67.2405 15.1558C66.0965 15.1558 65.2899 14.9175 64.8205 14.4408C64.3585 13.9641 64.1275 13.1465 64.1275 11.9878V7.42278H65.7995V11.9878C65.7995 12.6845 65.8949 13.1611 66.0855 13.4178C66.2835 13.6745 66.6429 13.8028 67.1635 13.8028C67.6769 13.8028 68.0289 13.6745 68.2195 13.4178C68.4175 13.1611 68.5165 12.6845 68.5165 11.9878V7.42278H70.1995ZM74.4748 12.1418L72.9458 11.6028C72.3812 11.3975 71.9778 11.1188 71.7358 10.7668C71.4938 10.4148 71.3728 9.95279 71.3728 9.38079C71.3728 8.54478 71.5745 7.98745 71.9778 7.70878C72.3885 7.42279 73.1072 7.27979 74.1338 7.27979C75.1018 7.27979 75.9342 7.37879 76.6308 7.57678L76.5208 8.72079C75.8828 8.69878 75.0908 8.68778 74.1448 8.68778C73.7048 8.68778 73.4115 8.72811 73.2648 8.80878C73.1182 8.88211 73.0448 9.07279 73.0448 9.38079C73.0448 9.63012 73.0998 9.80979 73.2098 9.91978C73.3198 10.0298 73.5288 10.1361 73.8368 10.2388L75.2778 10.7338C75.8645 10.9391 76.2788 11.2215 76.5208 11.5808C76.7628 11.9328 76.8838 12.3948 76.8838 12.9668C76.8838 13.8175 76.6785 14.3968 76.2678 14.7048C75.8572 15.0055 75.1238 15.1558 74.0678 15.1558C73.2098 15.1558 72.3408 15.0605 71.4608 14.8698L71.5598 13.6598C73.1218 13.6965 73.9578 13.7148 74.0678 13.7148C74.5152 13.7148 74.8122 13.6671 74.9588 13.5718C75.1128 13.4765 75.1898 13.2785 75.1898 12.9778C75.1898 12.7211 75.1385 12.5415 75.0358 12.4388C74.9332 12.3288 74.7462 12.2298 74.4748 12.1418ZM78.0722 15.0128V7.42278C79.1135 7.35678 80.0962 7.32378 81.0202 7.32378C82.2302 7.32378 83.0699 7.60245 83.5392 8.15979C84.0159 8.71712 84.2542 9.73645 84.2542 11.2178C84.2542 12.6991 84.0159 13.7185 83.5392 14.2758C83.0699 14.8331 82.2302 15.1118 81.0202 15.1118C80.0962 15.1118 79.1135 15.0788 78.0722 15.0128ZM79.7442 8.64378V13.7808C79.8689 13.7808 80.0705 13.7845 80.3492 13.7918C80.6352 13.7918 80.8589 13.7918 81.0202 13.7918C81.5849 13.7918 81.9699 13.6121 82.1752 13.2528C82.3879 12.8935 82.4942 12.2151 82.4942 11.2178C82.4942 10.2204 82.3879 9.54212 82.1752 9.18278C81.9699 8.81612 81.5849 8.63278 81.0202 8.63278L79.7442 8.64378ZM91.1058 8.78678H88.8398V15.0128H87.1568V8.78678H84.8908V7.42278H91.1058V8.78678ZM99.6029 8.78678H97.3369V15.0128H95.6539V8.78678H93.3879V7.42278H99.6029V8.78678ZM106.55 15.0128H104.779L104.207 12.6918C104.134 12.4498 104.035 12.2848 103.91 12.1968C103.793 12.1015 103.621 12.0538 103.393 12.0538L102.216 12.0428V15.0128H100.566V7.42278C101.248 7.35678 102.213 7.32378 103.459 7.32378C104.479 7.32378 105.201 7.48512 105.626 7.80778C106.052 8.13045 106.264 8.71712 106.264 9.56778C106.264 10.1251 106.151 10.5615 105.923 10.8768C105.703 11.1921 105.333 11.3828 104.812 11.4488V11.5038C105.392 11.6358 105.751 12.0171 105.89 12.6478L106.55 15.0128ZM102.216 10.7558H103.426C103.866 10.7558 104.167 10.6825 104.328 10.5358C104.49 10.3818 104.57 10.0958 104.57 9.67779C104.57 9.25978 104.49 8.97745 104.328 8.83078C104.174 8.68412 103.874 8.61079 103.426 8.61079L102.216 8.62178V10.7558ZM112.838 13.5938L112.981 14.8368C112.321 15.0421 111.511 15.1448 110.55 15.1448C109.377 15.1448 108.552 14.8515 108.075 14.2648C107.599 13.6781 107.36 12.6625 107.36 11.2178C107.36 9.77312 107.599 8.75745 108.075 8.17078C108.552 7.58412 109.377 7.29079 110.55 7.29079C111.401 7.29079 112.16 7.37512 112.827 7.54379L112.684 8.79779C112.09 8.76112 111.379 8.74278 110.55 8.74278C110 8.74278 109.623 8.91878 109.417 9.27079C109.219 9.61545 109.12 10.2644 109.12 11.2178C109.12 12.1711 109.219 12.8238 109.417 13.1758C109.623 13.5205 110 13.6928 110.55 13.6928C111.57 13.6928 112.332 13.6598 112.838 13.5938ZM113.916 8.81979L113.85 7.55478C114.7 7.37879 115.551 7.29079 116.402 7.29079C117.252 7.29079 117.887 7.41545 118.305 7.66478C118.73 7.91412 118.943 8.37612 118.943 9.05078C118.943 9.50545 118.858 9.90879 118.69 10.2608C118.528 10.6055 118.202 11.0381 117.711 11.5588L115.764 13.5828C116.042 13.5315 116.416 13.5058 116.886 13.5058H119.163V15.0128H113.784V14.0778C113.784 13.7918 113.864 13.5645 114.026 13.3958L115.885 11.3938C116.794 10.4478 117.245 9.72545 117.238 9.22679C117.23 9.01412 117.15 8.87845 116.996 8.81979C116.842 8.75379 116.578 8.72079 116.204 8.72079C115.426 8.72079 114.664 8.75379 113.916 8.81979ZM123.102 7.27979C124.187 7.27979 124.946 7.57312 125.379 8.15979C125.812 8.74645 126.028 9.76578 126.028 11.2178C126.028 12.6698 125.812 13.6891 125.379 14.2758C124.946 14.8625 124.187 15.1558 123.102 15.1558C122.024 15.1558 121.269 14.8625 120.836 14.2758C120.403 13.6891 120.187 12.6698 120.187 11.2178C120.187 9.76578 120.403 8.74645 120.836 8.15979C121.269 7.57312 122.024 7.27979 123.102 7.27979ZM123.091 8.61079C122.6 8.61079 122.266 8.79045 122.09 9.14978C121.921 9.50179 121.837 10.1911 121.837 11.2178C121.837 12.2445 121.921 12.9375 122.09 13.2968C122.266 13.6488 122.6 13.8248 123.091 13.8248C123.597 13.8248 123.938 13.6488 124.114 13.2968C124.29 12.9375 124.378 12.2445 124.378 11.2178C124.378 10.1911 124.29 9.50179 124.114 9.14978C123.938 8.79045 123.597 8.61079 123.091 8.61079Z" fill="black"/>
<path d="M71.9067 21.2043H68.8167V29.6943H66.5217V21.2043H63.4317V19.3443H71.9067V21.2043ZM76.2867 26.7393H73.6167C73.6867 27.2793 73.8467 27.6443 74.0967 27.8343C74.3567 28.0143 74.7817 28.1043 75.3717 28.1043C76.1617 28.1043 77.0817 28.0493 78.1317 27.9393L78.3417 29.3193C77.5717 29.6893 76.4967 29.8743 75.1167 29.8743C73.7267 29.8743 72.7367 29.5743 72.1467 28.9743C71.5567 28.3743 71.2617 27.3843 71.2617 26.0043C71.2617 24.5543 71.5467 23.5393 72.1167 22.9593C72.6967 22.3793 73.6667 22.0893 75.0267 22.0893C76.2567 22.0893 77.1467 22.3043 77.6967 22.7343C78.2467 23.1543 78.5267 23.7993 78.5367 24.6693C78.5367 25.3593 78.3567 25.8793 77.9967 26.2293C77.6467 26.5693 77.0767 26.7393 76.2867 26.7393ZM73.5717 25.4043H75.6717C75.9417 25.4043 76.1217 25.3393 76.2117 25.2093C76.3117 25.0793 76.3617 24.8893 76.3617 24.6393C76.3617 24.2893 76.2717 24.0493 76.0917 23.9193C75.9117 23.7793 75.5817 23.7093 75.1017 23.7093C74.5317 23.7093 74.1417 23.8243 73.9317 24.0543C73.7217 24.2743 73.6017 24.7243 73.5717 25.4043ZM82.8502 23.7843V27.2793C82.8502 27.5593 82.9102 27.7543 83.0302 27.8643C83.1502 27.9743 83.3602 28.0293 83.6602 28.0293H84.6052L84.8452 29.5743C84.2752 29.7743 83.5802 29.8743 82.7602 29.8743C82.0902 29.8743 81.5702 29.6893 81.2002 29.3193C80.8302 28.9393 80.6452 28.4143 80.6452 27.7443V23.7843H79.3402V22.3743L80.6452 22.2993V20.2293H82.8502V22.2993H84.9052V23.7843H82.8502ZM88.3722 19.1943V21.7593C88.3722 22.2693 88.3272 22.7843 88.2372 23.3043C89.2672 22.4943 90.2772 22.0893 91.2672 22.0893C91.9372 22.0893 92.4472 22.2643 92.7972 22.6143C93.1572 22.9643 93.3372 23.4743 93.3372 24.1443V29.6943H91.1322V24.8343C91.1322 24.5043 91.0772 24.2793 90.9672 24.1593C90.8672 24.0293 90.6822 23.9643 90.4122 23.9643C89.8822 23.9643 89.1972 24.1893 88.3572 24.6393V29.6943H86.1372V19.1943H88.3722ZM99.8267 26.7393H97.1567C97.2267 27.2793 97.3867 27.6443 97.6367 27.8343C97.8967 28.0143 98.3217 28.1043 98.9117 28.1043C99.7017 28.1043 100.622 28.0493 101.672 27.9393L101.882 29.3193C101.112 29.6893 100.037 29.8743 98.6567 29.8743C97.2667 29.8743 96.2767 29.5743 95.6867 28.9743C95.0967 28.3743 94.8017 27.3843 94.8017 26.0043C94.8017 24.5543 95.0867 23.5393 95.6567 22.9593C96.2367 22.3793 97.2067 22.0893 98.5667 22.0893C99.7967 22.0893 100.687 22.3043 101.237 22.7343C101.787 23.1543 102.067 23.7993 102.077 24.6693C102.077 25.3593 101.897 25.8793 101.537 26.2293C101.187 26.5693 100.617 26.7393 99.8267 26.7393ZM97.1117 25.4043H99.2117C99.4817 25.4043 99.6617 25.3393 99.7517 25.2093C99.8517 25.0793 99.9017 24.8893 99.9017 24.6393C99.9017 24.2893 99.8117 24.0493 99.6317 23.9193C99.4517 23.7793 99.1217 23.7093 98.6417 23.7093C98.0717 23.7093 97.6817 23.8243 97.4717 24.0543C97.2617 24.2743 97.1417 24.7243 97.1117 25.4043ZM108.82 22.0893L108.595 24.1443H107.995C107.505 24.1443 106.75 24.3143 105.73 24.6543V29.6943H103.51V22.2993H105.235L105.43 23.3793C106.44 22.5193 107.44 22.0893 108.43 22.0893H108.82Z" fill="black"/>
<path d="M19.0662 36.1077C28.8715 36.1077 36.8203 28.159 36.8203 18.3537C36.8203 8.54837 28.8715 0.599609 19.0662 0.599609C9.2609 0.599609 1.31213 8.54837 1.31213 18.3537C1.31213 28.159 9.2609 36.1077 19.0662 36.1077Z" fill="black"/>
<path d="M20.9586 19.9921V19.9892C20.8359 19.9978 20.2022 20.0349 18.7922 20.0349C17.6647 20.0349 16.8741 20.0035 16.5943 19.9892V19.9921C12.2586 19.8008 9.0246 19.0473 9.0246 18.1424C9.0246 17.2405 12.2614 16.4841 16.5943 16.2928V19.2414C16.8769 19.2613 17.6904 19.3099 18.8122 19.3099C20.1594 19.3099 20.8331 19.2528 20.9586 19.2414V16.2957C25.2858 16.4898 28.5113 17.2433 28.5113 18.1453C28.5113 19.0473 25.283 19.8008 20.9586 19.9949V19.9921ZM20.9586 15.9903V13.3528H26.9956V9.33105H10.5602V13.3528H16.5972V15.9903C11.6906 16.2157 8.00275 17.1862 8.00275 18.3508C8.00275 19.5154 11.6934 20.4859 16.5972 20.7142V29.1688H20.9615V20.7142C25.8596 20.4887 29.5417 19.5182 29.5417 18.3537C29.5417 17.1919 25.8596 16.2186 20.9615 15.9931" fill="#E1E1E1"/>
<path d="M43.3353 31.5095C48.7837 31.5095 53.2004 27.0927 53.2004 21.6444C53.2004 16.1961 48.7837 11.7793 43.3353 11.7793C37.887 11.7793 33.4702 16.1961 33.4702 21.6444C33.4702 27.0927 37.887 31.5095 43.3353 31.5095Z" fill="black" stroke="#FFB400"/>
<path d="M37.396 16.2588L48.35 18.4984M37.396 16.2588L43.3842 30.0853M37.396 16.2588L44.4066 21.8576M48.35 18.4984L50.979 21.0299M48.35 18.4984L44.4066 21.8576M43.3842 30.0853L50.979 21.0299M43.3842 30.0853L44.4066 21.8576M44.4066 21.8576L50.979 21.0299" stroke="#E5E5E5"/>
</g>
<defs>
<clipPath id="clip0_15447_10353">
<rect width="132" height="36" fill="white" transform="translate(0.5 0.5)"/>
</clipPath>
</defs>
</svg>
