<svg width="87" height="46" viewBox="0 0 87 46" fill="none" xmlns="http://www.w3.org/2000/svg">
<g clip-path="url(#clip0_15447_10418)">
<path d="M23.1968 44.6057C35.2832 44.6057 45.0812 34.8077 45.0812 22.7213C45.0812 10.6349 35.2832 0.836914 23.1968 0.836914C11.1104 0.836914 1.31238 10.6349 1.31238 22.7213C1.31238 34.8077 11.1104 44.6057 23.1968 44.6057Z" fill="black"/>
<path d="M9.65668 11.3496L32.7846 16.0781M9.65668 11.3496L22.2999 40.5422M9.65668 11.3496L24.4585 23.1706M32.7846 16.0781L38.3352 21.4232M32.7846 16.0781L24.4585 23.1706M22.2999 40.5422L38.3352 21.4232M22.2999 40.5422L24.4585 23.1706M24.4585 23.1706L38.3352 21.4232" stroke="#E1E1E1" stroke-width="2"/>
<path d="M62.5897 21.2035H59.4997V29.6935H57.2047V21.2035H54.1147V19.3435H62.5897V21.2035ZM67.9505 22.0885L67.7255 24.1435H67.1255C66.6355 24.1435 65.8805 24.3135 64.8605 24.6535V29.6935H62.6405V22.2985H64.3655L64.5605 23.3785C65.5705 22.5185 66.5705 22.0885 67.5605 22.0885H67.9505ZM72.4051 22.0885C73.7851 22.0885 74.7601 22.3885 75.3301 22.9885C75.9101 23.5785 76.2001 24.5835 76.2001 26.0035C76.2001 27.4235 75.9101 28.4285 75.3301 29.0185C74.7601 29.5985 73.7851 29.8885 72.4051 29.8885C71.0151 29.8885 70.0301 29.5985 69.4501 29.0185C68.8801 28.4285 68.5951 27.4235 68.5951 26.0035C68.5951 24.5735 68.8801 23.5635 69.4501 22.9735C70.0301 22.3835 71.0151 22.0885 72.4051 22.0885ZM72.4051 23.7535C71.8151 23.7535 71.4201 23.9035 71.2201 24.2035C71.0201 24.5035 70.9201 25.1035 70.9201 26.0035C70.9201 26.8835 71.0201 27.4735 71.2201 27.7735C71.4201 28.0735 71.8151 28.2235 72.4051 28.2235C72.9751 28.2235 73.3601 28.0735 73.5601 27.7735C73.7701 27.4735 73.8751 26.8835 73.8751 26.0035C73.8751 25.1135 73.7751 24.5185 73.5751 24.2185C73.3751 23.9085 72.9851 23.7535 72.4051 23.7535ZM79.5138 22.2985L79.6788 23.3935C80.7488 22.5235 81.8038 22.0885 82.8438 22.0885C83.5138 22.0885 84.0238 22.2635 84.3738 22.6135C84.7338 22.9635 84.9138 23.4735 84.9138 24.1435V29.6935H82.7088V24.8335C82.7088 24.5035 82.6538 24.2785 82.5438 24.1585C82.4438 24.0285 82.2588 23.9635 81.9888 23.9635C81.5188 23.9635 80.8338 24.1885 79.9338 24.6385V29.6935H77.7138V22.2985H79.5138Z" fill="black"/>
</g>
<defs>
<clipPath id="clip0_15447_10418">
<rect width="86" height="45" fill="white" transform="translate(0.5 0.5)"/>
</clipPath>
</defs>
</svg>
